<svg width="720" height="189" viewBox="0 0 720 189" fill="none" xmlns="http://www.w3.org/2000/svg">
<g clip-path="url(#clip0_617_1309)">
<path d="M472.32 49.8613H396.08V63.8594H425.34V139.189H443.05V63.8594H472.32V49.8613Z" fill="white"/>
<path d="M504.96 49.8613H487.24V139.189H504.96V49.8613Z" fill="white"/>
<path d="M613.52 49.8613L578.84 109.214L578.66 108.909L543.63 49.8613H528.82V139.189H545.23V80.1821L545.61 80.8318L574.71 129.373H582.29L611.9 78.9031V79.6746L612.04 139.189H628.44L628.19 49.8613H613.52Z" fill="white"/>
<path d="M387.36 90.6781H353.71V105.773H371.48V121.303L370.57 121.801C365.46 124.582 359.65 125.983 353.29 125.983C347.27 125.983 341.83 124.643 337.1 121.984C332.36 119.314 328.59 115.548 325.92 110.777C323.26 106.026 321.91 100.555 321.91 94.5253C321.91 88.4957 323.26 82.8924 325.92 78.1417C328.59 73.3708 332.38 69.615 337.18 66.9859C341.94 64.3872 347.45 63.0676 353.55 63.0676C361.13 63.0676 367.95 65.3516 373.82 69.8687L383.64 58.0835C380.66 55.7387 377.31 53.7694 373.66 52.2467C367.37 49.6075 360.25 48.2676 352.5 48.2676C343.25 48.2676 334.82 50.2775 327.44 54.2363C320.09 58.1749 314.28 63.7071 310.15 70.691C306.02 77.6748 303.93 85.694 303.93 94.5253C303.93 103.357 306.02 111.376 310.15 118.36C314.28 125.344 320.05 130.886 327.31 134.824C334.59 138.773 342.94 140.783 352.1 140.783C358.52 140.783 364.98 139.778 371.32 137.809C377.33 135.941 382.72 133.261 387.35 129.851V90.6883L387.36 90.6781Z" fill="white"/>
<path d="M712.68 100.464V87.2573H670.22V63.5955H718.3V49.8613H652.64V139.189H720V125.445H670.22V100.464H712.68Z" fill="white"/>
<path d="M248.79 115.609C248.79 110.28 247.41 105.752 244.7 102.149C241.97 98.5248 238.12 95.8958 233.27 94.3325L229.31 93.0636L232.99 91.1147C236.52 89.2469 239.3 86.6483 241.26 83.4C243.22 80.1517 244.21 76.406 244.21 72.2441C244.21 65.4531 241.44 59.9919 235.98 56.0331C230.34 51.9423 222.04 49.8613 211.31 49.8613H168.35V139.189H213.92C225.44 139.189 234.28 137.088 240.18 132.936C245.88 128.927 248.78 123.1 248.78 115.609H248.79ZM185.95 62.5398H208.71C214.25 62.5398 218.57 63.5549 221.55 65.5445C224.75 67.6965 226.38 70.9346 226.38 75.1574C226.38 79.3802 224.76 82.6386 221.57 84.8312C218.6 86.8817 214.27 87.9171 208.72 87.9171H185.96V62.5398H185.95ZM225.91 123.445C222.81 125.486 218.25 126.511 212.37 126.511H185.95V100.068H212.37C227.72 100.068 230.95 107.295 230.95 113.355C230.95 117.862 229.26 121.253 225.92 123.445H225.91Z" fill="white"/>
<path d="M285.49 49.8613H267.77V139.189H285.49V49.8613Z" fill="white"/>
<path d="M0 24.9713V164.11C0 173.012 4.76 181.021 12.73 185.539C21.17 190.34 31.93 190.117 40.14 185.001L106.07 143.879C113.23 139.413 117.64 131.85 117.88 123.659C118.11 115.386 114.27 107.833 107.32 102.92L98.87 96.9413L106.07 92.4546C113.23 87.9882 117.64 80.4258 117.88 72.234C118.11 63.961 114.27 56.4087 107.32 51.4956L38.59 3.15694C34.81 1.0963 30.46 0 26.06 0C21.66 0 17.3 1.0963 13.39 3.16709C5.01 7.61319 0 15.7644 0 24.9713ZM16 24.9713C16 21.5301 17.9 18.4645 21.08 16.7795C24.53 14.9523 28.8 15.2061 31.97 17.4494L97.89 64.0523C100.51 65.9099 101.97 68.742 101.88 71.8279C101.79 74.9443 100.16 77.7053 97.41 79.4208L85 87.1558L84.78 87.0035L38.59 54.5917C32.29 51.1708 24.93 50.511 17.89 52.7543L15.99 53.3634V24.9713H16ZM16 76.3857C16 72.9344 17.9 69.8789 21.08 68.1939C24.53 66.3566 28.81 66.6306 31.97 68.8638L70.58 96.1597L70.04 96.4947L31.49 120.532C29.84 121.567 27.94 122.105 25.99 122.105C24.18 122.105 22.4 121.628 20.83 120.735C17.81 119.02 16.01 116.015 16.01 112.685V76.3755L16 76.3857ZM16 135.728L17.9 136.327C25.53 138.753 33.43 137.768 40.15 133.586L84.45 105.955L97.9 115.467C100.52 117.324 101.98 120.156 101.89 123.242C101.8 126.359 100.17 129.12 97.42 130.835L31.48 171.957C29.83 172.992 27.93 173.53 25.98 173.53C24.18 173.53 22.39 173.063 20.82 172.16C17.8 170.444 16 167.439 16 164.11V135.718V135.728Z" fill="white"/>
</g>
<defs>
<clipPath id="clip0_617_1309">
<rect width="720" height="189" fill="white"/>
</clipPath>
</defs>
</svg>
