<?xml version="1.0" encoding="UTF-8"?>
<svg xmlns="http://www.w3.org/2000/svg" width="157" height="42" viewBox="0 0 157 42" fill="none">
  <g clip-path="url(#clip0_13904_2220)">
    <path d="M109.789 11.2146H105.417V30.7861H109.789V11.2146Z" fill="#222222"></path>
    <path d="M84.358 19.9107H76.539V23.6661H80.3812V26.5424L80.327 26.5706C79.2611 27.1415 78.0477 27.4302 76.7192 27.4302C75.4645 27.4302 74.3313 27.1545 73.3501 26.6119C72.369 26.0692 71.5897 25.3007 71.0361 24.3261C70.4826 23.3557 70.2026 22.2356 70.2026 20.9983C70.2026 19.761 70.4826 18.6126 71.0361 17.6423C71.5897 16.6698 72.3733 15.9057 73.3653 15.3717C74.3552 14.8377 75.5035 14.5685 76.7756 14.5685C78.4449 14.5685 79.9319 15.0917 81.1974 16.1206L83.6699 13.1988C82.9536 12.6062 82.133 12.1156 81.2278 11.7422C79.8342 11.167 78.2604 10.8739 76.5477 10.8739C74.5028 10.8739 72.636 11.3124 71.0014 12.1764C69.369 13.0381 68.0752 14.2516 67.157 15.782C66.2388 17.3124 65.772 19.0685 65.772 20.9983C65.772 22.9281 66.2388 24.6842 67.157 26.2146C68.0752 27.745 69.3603 28.9584 70.9732 29.8224C72.5882 30.6864 74.4355 31.1249 76.463 31.1249C77.8783 31.1249 79.3024 30.9078 80.6981 30.4801C82.0744 30.059 83.3052 29.4469 84.3559 28.6632V19.9107H84.358Z" fill="#222222"></path>
    <path d="M132.406 30.7861H136.496L136.439 11.2146H132.842L125.496 23.6009L118.033 11.2146H114.408V30.7861H118.498V18.9121L124.45 28.6957H126.397L132.378 18.6516L132.406 30.7861Z" fill="#222222"></path>
    <path d="M154.713 22.5372V19.1813H145.53V14.6813H155.928V11.2146H141.187V30.7861H156.295V27.3194H145.53V22.5372H154.713Z" fill="#222222"></path>
    <path d="M102.732 11.2146H85.7021V14.7399H92.0298V30.7861H96.4017V14.7399H102.732V11.2146Z" fill="#222222"></path>
    <path d="M62.3248 11.2146H57.9529V30.7861H62.3248V11.2146Z" fill="#222222"></path>
    <path d="M54.3908 25.4938C54.3908 24.2977 54.0738 23.2775 53.4508 22.4613C52.8257 21.6451 51.9487 21.0524 50.8459 20.703L50.6115 20.6292L50.8286 20.5163C51.6361 20.0951 52.2743 19.5069 52.7236 18.7732C53.173 18.0394 53.4009 17.1929 53.4009 16.2551C53.4009 14.716 52.7649 13.4787 51.508 12.58C50.2403 11.6748 48.393 11.2146 46.016 11.2146H36.456V30.7861H46.5804C49.1267 30.7861 51.0891 30.3216 52.4132 29.4055C53.7243 28.4981 54.3886 27.1805 54.3886 25.4916L54.3908 25.4938ZM40.8019 14.4577H45.4538C46.5978 14.4577 47.4813 14.6574 48.0804 15.0547C48.6925 15.4584 49.003 16.0727 49.003 16.8781C49.003 17.6834 48.6925 18.2999 48.0826 18.7145C47.4834 19.1205 46.5999 19.3245 45.4538 19.3245H40.8019V14.4577ZM49.0247 26.9352C48.3995 27.3389 47.4617 27.5452 46.2418 27.5452H40.7997V22.4526H46.2418C48.7273 22.4526 49.9885 23.3144 49.9885 25.0141C49.9885 25.8759 49.6629 26.5227 49.0247 26.9374V26.9352Z" fill="#222222"></path>
    <path d="M23.7046 22.5306L22.2719 21.5343L18.5643 23.8135L21.3038 25.7216C21.7813 26.0538 22.0462 26.5595 22.031 27.1087C22.0158 27.6623 21.7184 28.1572 21.2148 28.4655L6.95726 37.2266C6.3538 37.5978 5.59186 37.6108 4.97102 37.2635C4.41965 36.9553 4.0897 36.4169 4.0897 35.8243V17.1363C4.0897 16.522 4.43702 15.975 5.01878 15.6711C5.30315 15.5234 5.62008 15.4431 5.93701 15.4431C6.33643 15.4431 6.72065 15.5625 7.04627 15.7904L14.9999 21.3302L18.7076 19.0509L8.83931 12.2282C7.04192 11.2623 4.89505 11.2514 3.06293 12.2087C1.14616 13.2138 0 15.0546 0 17.1363V35.8265C0 37.8366 1.08972 39.647 2.91315 40.6673C3.83572 41.1817 4.87985 41.4552 5.93484 41.4552C7.07666 41.4552 8.19242 41.1405 9.16058 40.5457L23.4181 31.7845C25.057 30.7773 26.0686 29.0689 26.1228 27.2173C26.1771 25.3461 25.2958 23.6377 23.7046 22.5306Z" fill="#004A8C"></path>
    <path d="M0 17.1363C0 15.0546 1.14616 13.2138 3.0651 12.2109C3.39723 12.0372 3.74238 11.8961 4.09187 11.7854V6.18055C4.09187 5.56623 4.43919 5.0192 5.02095 4.71529C5.30532 4.56768 5.62225 4.48954 5.93918 4.48954C6.3386 4.48954 6.72282 4.60893 7.04843 4.83686L21.3059 14.7659C21.7835 15.098 22.0483 15.6038 22.0331 16.153C22.0179 16.7065 21.7205 17.2015 21.2169 17.5097L16.9536 20.1298L14.9999 21.3302L6.95726 26.273C6.35379 26.6442 5.59186 26.6573 4.97102 26.3099C4.41965 26.0017 4.0897 25.4633 4.0897 24.8707V30.2173C4.68448 30.404 5.30749 30.5017 5.93484 30.5017C7.07665 30.5017 8.19025 30.1869 9.16058 29.5921L23.4181 20.831C25.057 19.8237 26.0686 18.1153 26.1207 16.2637C26.1749 14.3925 25.2936 12.6841 23.7024 11.577L8.84147 1.27682C7.04409 0.310837 4.89722 0.299984 3.0651 1.25729C1.14616 2.26017 0 4.10097 0 6.18055V17.1342V17.1363Z" fill="#1F74CE"></path>
  </g>
  <defs>
    <clipPath id="clip0_13904_2220">
      <rect width="156.294" height="40.91" fill="white" transform="translate(0 0.545044)"></rect>
    </clipPath>
  </defs>
</svg>
